<svg xmlns="http://www.w3.org/2000/svg" width="30" height="30"><path d="M26.36 13.8c0-.17.03-.34.03-.52C26.4 8.43 22.92 5 18 5c-3.55 0-6.57 2.04-8 5-.7-.53-2.05-1-3-1-2.27 0-4.22 1.47-4.22 3.7 0 .43.06.84.18 1.22C1.2 14.96 0 16.82 0 19c0 3.26 2.7 5.95 6 6 0 0 17.98 0 18.1 0 3.25 0 5.9-2.8 5.9-6 0-2.42-1.5-4.3-3.64-5.2zm-18.3 6.7c-.6-.54-.98-1.2-1.13-1.98-.05-.26-.07-.53-.07-.8 0-1.1.4-2.03 1.2-2.75.8-.72 1.83-1.08 3.07-1.08 1.28 0 2.48.47 3.54 1.42.27.24.53.5.77.8l1.37 1.6c.24.34.5.62.76.85.7.63 1.46.95 2.1.95.55 0 1-.17 1.37-.5.32-.3.5-.68.55-1.1v-.2c0-.17-.02-.34-.07-.5-.08-.28-.24-.52-.47-.74-.37-.35-.82-.52-1.38-.52-.68 0-1.35.23-2.1.95l-1.2-1.42-.15-.16c1.06-1.04 2.1-1.43 3.53-1.43 1.26 0 2.28.35 3.06 1.07.8.72 1.2 1.64 1.2 2.77 0 .3-.02.55-.07.8-.15.77-.53 1.42-1.12 1.96-.58.54-1.3.88-2.14 1.02-.28.04-.58.06-.9.06-1.3 0-2.5-.46-3.54-1.4-.28-.25-.55-.53-.8-.85l-1.37-1.6c-.23-.32-.48-.6-.74-.83-.68-.63-1.46-.94-2.12-.94-.2 0-.4.03-.57.07-.3.08-.55.23-.78.44-.27.27-.44.57-.5.9-.03.12-.05.24-.05.36 0 .5.18.9.53 1.25l.02.02c.38.34.84.5 1.4.5.68 0 1.35-.22 2.1-.94l1.2 1.4.12.17c-1.1 1.04-2.14 1.44-3.5 1.44-1.26 0-2.3-.36-3.1-1.07z"/></svg>