<svg xmlns="http://www.w3.org/2000/svg" xmlns:xlink="http://www.w3.org/1999/xlink" width="17" height="16" viewBox="0 0 17 16"><defs><clipPath id="b"><rect width="17" height="16"/></clipPath></defs><g fill="#fff" id="a" clip-path="url(#b)"><path d="M-533,16h-16V2h2V14h13V2h2V16Zm-6.007-4.05c-.112,0-.222-.011-.332-.018s-.216-.016-.32-.027-.2-.023-.281-.038v-.944q.281.054.631.087c.233.022.475.033.728.033a2.846,2.846,0,0,0,.636-.062,1.317,1.317,0,0,0,.441-.181.722.722,0,0,0,.257-.292.9.9,0,0,0,.082-.391.712.712,0,0,0-.085-.347.712.712,0,0,0-.258-.266,1.413,1.413,0,0,0-.443-.169,3,3,0,0,0-.639-.06h-.646V8.447h.592a2.037,2.037,0,0,0,.577-.069,1,1,0,0,0,.365-.184.648.648,0,0,0,.193-.274.959.959,0,0,0,.059-.332.65.65,0,0,0-.232-.541,1.139,1.139,0,0,0-.716-.185,3.488,3.488,0,0,0-.686.067,6.658,6.658,0,0,0-.7.178V6.194c.133-.044.261-.082.383-.112s.244-.055.365-.076.245-.035.37-.044.254-.013.387-.013a3.119,3.119,0,0,1,.844.1,1.8,1.8,0,0,1,.61.292,1.208,1.208,0,0,1,.372.461,1.44,1.44,0,0,1,.124.606,1.4,1.4,0,0,1-.242.858,1.516,1.516,0,0,1-.68.5,1.819,1.819,0,0,1,.508.154,1.307,1.307,0,0,1,.39.281,1.187,1.187,0,0,1,.249.394,1.337,1.337,0,0,1,.087.494,1.816,1.816,0,0,1-.16.777,1.516,1.516,0,0,1-.492.589,2.441,2.441,0,0,1-.835.372,4.832,4.832,0,0,1-1.184.129C-538.789,11.957-538.895,11.955-539.006,11.95ZM-545,11.867v-.8l1.376-1.376q.387-.387.621-.669a3.63,3.63,0,0,0,.361-.5,1.458,1.458,0,0,0,.167-.408,1.831,1.831,0,0,0,.04-.388.917.917,0,0,0-.053-.314.744.744,0,0,0-.156-.258.751.751,0,0,0-.258-.174.943.943,0,0,0-.356-.064,1.394,1.394,0,0,0-.637.148,2.4,2.4,0,0,0-.556.4l-.575-.739a3.11,3.11,0,0,1,.853-.563,2.488,2.488,0,0,1,1.027-.211,2.58,2.58,0,0,1,.775.109,1.66,1.66,0,0,1,.594.323,1.435,1.435,0,0,1,.383.535,1.889,1.889,0,0,1,.136.739,2.182,2.182,0,0,1-.094.648,2.494,2.494,0,0,1-.272.586,3.959,3.959,0,0,1-.438.57q-.261.285-.595.6l-.846.806h2.453v1ZM-538,4V0h2V4Zm-7,0V0h2V4Z" transform="translate(549)"/></g></svg>
