<svg xmlns="http://www.w3.org/2000/svg" xmlns:xlink="http://www.w3.org/1999/xlink" width="15" height="15" viewBox="0 0 15 15"><defs><clipPath id="b"><rect width="15" height="15"/></clipPath></defs><g id="a" clip-path="url(#b)"><g transform="translate(-56 -1383)"><circle cx="3.5" cy="3.5" r="3.5" transform="translate(56 1387)"/><path d="M-517.672,13.5a1.493,1.493,0,0,1,.147-.647L-522,8.379l.707-.707,4.474,4.475a1.493,1.493,0,0,1,.647-.147,1.5,1.5,0,0,1,1.5,1.5,1.5,1.5,0,0,1-1.5,1.5A1.5,1.5,0,0,1-517.672,13.5Zm3.086-5.5h-6.086V7h6.086a1.5,1.5,0,0,1,1.414-1,1.5,1.5,0,0,1,1.5,1.5,1.5,1.5,0,0,1-1.5,1.5A1.5,1.5,0,0,1-514.586,8Zm-7.242-1.551,4.3-4.3a1.492,1.492,0,0,1-.146-.647,1.5,1.5,0,0,1,1.5-1.5,1.5,1.5,0,0,1,1.5,1.5,1.5,1.5,0,0,1-1.5,1.5,1.494,1.494,0,0,1-.647-.146l-4.3,4.3Z" transform="translate(582.672 1383)" opacity="0.4"/></g></g></svg>