<svg xmlns="http://www.w3.org/2000/svg" xmlns:xlink="http://www.w3.org/1999/xlink" width="17" height="12" viewBox="0 0 17 12"><defs><clipPath id="b"><rect width="17" height="12"/></clipPath></defs><g id="a" clip-path="url(#b)"><path d="M-535,12h-11a3,3,0,0,1-3-3V3a3,3,0,0,1,3-3h11a3,3,0,0,1,3,3V9A3,3,0,0,1-535,12Zm-10.693-6.383h0l.912.912L-547,8.749l1.343,1.343,2.22-2.219.912.912V5.617h-3.167Zm7.218-2.309V6.475h3.167l-.912-.912L-534,3.343-535.343,2l-2.22,2.219Z" transform="translate(549)"/></g></svg>