<svg xmlns="http://www.w3.org/2000/svg" xmlns:xlink="http://www.w3.org/1999/xlink" width="13" height="13" viewBox="0 0 13 13"><defs><clipPath id="b"><rect width="13" height="13"/></clipPath></defs><g fill="#fff" id="a" clip-path="url(#b)"><path d="M-541,13l1.439-1.439-4.622-4.622,2.121-2.121,4.622,4.622L-536,8v5Zm-5-1a3,3,0,0,1-3-3V3a3,3,0,0,1,3-3h6a3,3,0,0,1,3,3V7.586l-.439.439L-538,7.465V3a2,2,0,0,0-2-2h-6a2,2,0,0,0-2,2V9a2,2,0,0,0,2,2h4.465l.561.561-.439.439Z" transform="translate(549)"/></g></svg>
