<svg xmlns="http://www.w3.org/2000/svg" xmlns:xlink="http://www.w3.org/1999/xlink" width="17" height="18" viewBox="0 0 17 18"><defs><clipPath id="b"><rect width="17" height="18"/></clipPath></defs><g fill="#fff" id="a" clip-path="url(#b)"><path d="M2,17a1,1,0,0,1,1.467-.884L4.264,15H3a3,3,0,0,1-3-3V6A3,3,0,0,1,3,3h8.826l.641-1.154A1,1,0,1,1,13,2h-.046L12.4,3H14a3,3,0,0,1,3,3v6a3,3,0,0,1-3,3H4.878l-1.04,1.456A1,1,0,1,1,2,17Zm12-3a2,2,0,0,0,2-2V6a2,2,0,0,0-2-2H11.842L9.926,7.447a2.5,2.5,0,0,1,1.061,1.8h2.044a1,1,0,1,1,0,.5H10.987a2.468,2.468,0,0,1-.347,1.042l.659.494a1,1,0,1,1-.258.431l-.7-.526a2.5,2.5,0,0,1-3.083.478L5.593,14ZM1,6v6a2,2,0,0,0,2,2H4.978L6.85,11.379a2.5,2.5,0,0,1-.79-2.429L3.737,8.176a1,1,0,1,1,.237-.448l2.245.748A2.5,2.5,0,0,1,9.49,7.2L11.27,4H3A2,2,0,0,0,1,6Z"/></g></svg>
