<svg xmlns="http://www.w3.org/2000/svg" xmlns:xlink="http://www.w3.org/1999/xlink" width="17" height="12" viewBox="0 0 17 12"><defs><clipPath id="b"><rect width="17" height="12"/></clipPath></defs><g id="a" clip-path="url(#b)"><path d="M-535,12h-11a3,3,0,0,1-3-3V3a3,3,0,0,1,3-3h11a3,3,0,0,1,3,3V9A3,3,0,0,1-535,12Zm-3.66-3.807h0l.7.525A1,1,0,0,0-538,9a1,1,0,0,0,1,1,1,1,0,0,0,1-1,1,1,0,0,0-1-1,1,1,0,0,0-.7.287l-.659-.494a2.457,2.457,0,0,0,.347-1.043h2.044A1,1,0,0,0-535,7.5a1,1,0,0,0,1-1,1,1,0,0,0-1-1,1,1,0,0,0-.968.75h-2.044a2.482,2.482,0,0,0-.552-1.332l1.057-1.056A1,1,0,0,0-537,4a1,1,0,0,0,1-1,1,1,0,0,0-1-1,1,1,0,0,0-1,1,1,1,0,0,0,.139.508l-1.057,1.057A2.5,2.5,0,0,0-540.5,4a2.506,2.506,0,0,0-2.281,1.476l-2.245-.748A1,1,0,0,0-545,4.5a1,1,0,0,0-1-1,1,1,0,0,0-1,1,1,1,0,0,0,1,1,1,1,0,0,0,.737-.324l2.324.775A2.506,2.506,0,0,0-543,6.5a2.5,2.5,0,0,0,.163.89l-2.28,1.139A1,1,0,0,0-546,8a1,1,0,0,0-1,1,1,1,0,0,0,1,1,1,1,0,0,0,1-.97l2.387-1.193A2.488,2.488,0,0,0-540.5,9a2.511,2.511,0,0,0,1.84-.807Z" transform="translate(549)"/></g></svg>