<svg xmlns="http://www.w3.org/2000/svg" xmlns:xlink="http://www.w3.org/1999/xlink" width="23" height="16" viewBox="0 0 23 16"><defs><clipPath id="b"><rect width="23" height="16"/></clipPath></defs><g id="a" clip-path="url(#b)"><path d="M-542.584,16a.372.372,0,0,1-.239-.083.294.294,0,0,1-.112-.211l-.274-1.8a6.042,6.042,0,0,1-.878-.362l-1.377,1.045a.352.352,0,0,1-.244.088.336.336,0,0,1-.245-.108,12.906,12.906,0,0,1-1.611-1.64.382.382,0,0,1-.068-.225.373.373,0,0,1,.078-.224q.146-.205.5-.65t.527-.688a4.9,4.9,0,0,1-.4-.967l-1.786-.264a.31.31,0,0,1-.205-.122A.369.369,0,0,1-549,9.564V7.4a.377.377,0,0,1,.078-.225.292.292,0,0,1,.185-.126l1.816-.274a4.83,4.83,0,0,1,.381-.9q-.39-.558-1.045-1.348a.367.367,0,0,1-.1-.234.406.406,0,0,1,.088-.225,9.732,9.732,0,0,1,.961-1.049q.709-.7.923-.7a.413.413,0,0,1,.254.1l1.347,1.045a5.558,5.558,0,0,1,.889-.372,15.855,15.855,0,0,1,.283-1.816A.329.329,0,0,1-542.584,1h2.168a.368.368,0,0,1,.239.084.286.286,0,0,1,.112.21l.274,1.8a6.155,6.155,0,0,1,.879.361l1.387-1.044a.316.316,0,0,1,.234-.088.375.375,0,0,1,.244.1,13.374,13.374,0,0,1,1.612,1.66.318.318,0,0,1,.068.215.373.373,0,0,1-.078.224q-.147.205-.5.65t-.527.688a5.784,5.784,0,0,1,.4.957l1.787.274a.307.307,0,0,1,.205.122.367.367,0,0,1,.078.229V9.6a.373.373,0,0,1-.078.224.294.294,0,0,1-.2.127l-1.807.274a6.18,6.18,0,0,1-.381.889q.342.487,1.045,1.347a.375.375,0,0,1,.1.244.329.329,0,0,1-.088.225,9.959,9.959,0,0,1-.967,1.055q-.7.693-.918.693a.477.477,0,0,1-.254-.088l-1.348-1.055a5.551,5.551,0,0,1-.888.372,16.021,16.021,0,0,1-.284,1.816.327.327,0,0,1-.351.274Zm-.684-9.268A2.412,2.412,0,0,0-544,8.5a2.408,2.408,0,0,0,.732,1.767A2.409,2.409,0,0,0-541.5,11a2.406,2.406,0,0,0,1.768-.733A2.406,2.406,0,0,0-539,8.5a2.41,2.41,0,0,0-.733-1.769A2.409,2.409,0,0,0-541.5,6,2.412,2.412,0,0,0-543.268,6.732Zm12.062,1.523a.2.2,0,0,1-.158-.2V7.229a3.226,3.226,0,0,1-1.023-.591l-.717.414a.2.2,0,0,1-.25-.038,4.171,4.171,0,0,1-.922-1.594.2.2,0,0,1,.092-.236l.718-.414a3.263,3.263,0,0,1,0-1.183l-.718-.415a.2.2,0,0,1-.092-.236,4.161,4.161,0,0,1,.922-1.593.2.2,0,0,1,.25-.039l.717.415a3.228,3.228,0,0,1,1.023-.592V.3a.2.2,0,0,1,.158-.2,4.214,4.214,0,0,1,1.84,0,.2.2,0,0,1,.159.2v.829a3.212,3.212,0,0,1,1.023.592l.717-.415a.2.2,0,0,1,.25.039,4.172,4.172,0,0,1,.922,1.593.2.2,0,0,1-.093.236l-.717.415a3.266,3.266,0,0,1,0,1.183l.717.414a.2.2,0,0,1,.093.236,4.183,4.183,0,0,1-.922,1.594.2.2,0,0,1-.25.038l-.717-.414a3.226,3.226,0,0,1-1.023.591v.829a.2.2,0,0,1-.158.2,4.205,4.205,0,0,1-.921.1A4.185,4.185,0,0,1-531.206,8.255Zm-.427-4.076a1.349,1.349,0,0,0,1.347,1.347,1.349,1.349,0,0,0,1.348-1.347,1.35,1.35,0,0,0-1.348-1.348A1.35,1.35,0,0,0-531.634,4.179Z" transform="translate(549.143 0)"/></g></svg>