<svg xmlns="http://www.w3.org/2000/svg" xmlns:xlink="http://www.w3.org/1999/xlink" width="15" height="18" viewBox="0 0 16 19"><defs><clipPath id="b"><rect width="16" height="19"/></clipPath></defs><g id="a" clip-path="url(#b)"><path d="M4.945,17.6l.222.447v-.112a5.6,5.6,0,0,0,1.74-2.864,2.443,2.443,0,0,0-.7-2.037,3.067,3.067,0,0,1-.825.111,2.292,2.292,0,0,1-2.5-2,1.787,1.787,0,0,1,.629-1.327,1.975,1.975,0,0,0-.47.623C.671,8.743-.435,6.31.157,4.1.811,1.647,3.46,0,6.746,0A10.352,10.352,0,0,1,9.437.362c4.261,1.145,7.03,4.684,6.174,7.89-.655,2.451-3.3,4.1-6.59,4.1a10.133,10.133,0,0,1-1.309-.086,3.807,3.807,0,0,1,.606,2.813c-.43,2.16-2.827,3.373-2.929,3.424ZM3.884,11.151c0,.533.7,1,1.5,1a2.024,2.024,0,0,0,.7-.125l.552-.343a.766.766,0,0,0,.245-.532c0-.533-.7-1-1.5-1S3.884,10.618,3.884,11.151Zm3.712.933a1.745,1.745,0,0,0,.236-.525,1.748,1.748,0,0,1-.236.525Zm.238-.532,0-.019Zm.007-.029.007-.03Zm.01-.044,0-.016Zm.006-.032,0-.015Zm.007-.042,0-.011Zm0-.032,0-.012Zm0-.038v0Zm0-.036v0Zm0-.034v0Zm0-.039v0Zm0-.033v0Zm0-.042q0-.012,0-.024C7.884,11.135,7.884,11.143,7.884,11.151Zm0-.03c0-.006,0-.012,0-.019S7.884,11.115,7.884,11.121Zm0-.025q0-.011,0-.021Q7.883,11.085,7.883,11.1Zm0-.023a1.628,1.628,0,0,0-.033-.26,8.421,8.421,0,0,0,1.093.073c2.559,0,4.605-1.229,5.094-3.057.649-2.432-1.582-5.153-4.975-6.064a8.638,8.638,0,0,0-2.235-.3c-2.559,0-4.606,1.229-5.094,3.057-.446,1.673.5,3.6,2.4,4.9a2.982,2.982,0,0,1,1.247-.266A2.316,2.316,0,0,1,7.882,11.073ZM3.518,9.82l.014-.013ZM3.543,9.8l.007-.006Zm.021-.018.006,0Zm.02-.017,0,0Zm.02-.016,0,0Z" transform="translate(0 0.25)"/></g></svg>
