<svg width="16.28" height="19.105" version="1.1" viewBox="0 0 17.365 20.166" xmlns="http://www.w3.org/2000/svg"><path d="m5.745 18.297.222.447v-.112a5.6 5.6 0 0 0 1.74-2.864 2.44 2.44 0 0 0-.7-2.037 3 3 0 0 1-.825.111 2.29 2.29 0 0 1-2.5-2 1.79 1.79 0 0 1 .629-1.327 2 2 0 0 0-.47.623C1.47 9.44.365 7.008.957 4.798 1.61 2.343 4.26.697 7.546.697a10.4 10.4 0 0 1 2.69.361c4.262 1.145 7.03 4.684 6.175 7.89-.655 2.451-3.3 4.1-6.59 4.1a10 10 0 0 1-1.31-.086 3.8 3.8 0 0 1 .607 2.813c-.43 2.16-2.827 3.373-2.93 3.424zm-1.061-6.449c0 .533.7 1 1.5 1a2 2 0 0 0 .7-.125l.552-.343a.77.77 0 0 0 .245-.532c0-.533-.7-1-1.5-1s-1.497.467-1.497 1zm3.712.933a1.8 1.8 0 0 0 .236-.525 1.8 1.8 0 0 1-.236.525zm.238-.532v-.019zm.007-.029.007-.03zm.01-.044v-.016zm.006-.032v-.015zm.007-.042v-.01zm0-.032v-.012zm0-.038zm0-.036zm0-.034zm0-.039zm0-.033zm0-.042v-.024c.02.008.02.016.02.024zm0-.03V11.8c0-.007.02.013.02.02zm0-.025v-.02q.019.01.019.024zm0-.023a2 2 0 0 0-.033-.26 8 8 0 0 0 1.093.073c2.559 0 4.605-1.229 5.094-3.057.649-2.432-1.582-5.153-4.975-6.064a8.6 8.6 0 0 0-2.235-.3c-2.56 0-4.606 1.23-5.094 3.057-.446 1.673.5 3.6 2.4 4.9a3 3 0 0 1 1.247-.266 2.316 2.316 0 0 1 2.52 1.917zm-4.346-1.253.014-.013zm.025-.02.007-.006zm.02-.018h.007zm.02-.017zm.02-.016z" fill="#fff" stroke="#fff" stroke-opacity=".5" stroke-width="1.6"/><path d="m5.745 18.297.222.447v-.112a5.6 5.6 0 0 0 1.74-2.864 2.44 2.44 0 0 0-.7-2.037 3 3 0 0 1-.825.111 2.29 2.29 0 0 1-2.5-2 1.79 1.79 0 0 1 .629-1.327 2 2 0 0 0-.47.623C1.47 9.44.365 7.008.957 4.798 1.61 2.343 4.26.697 7.546.697a10.4 10.4 0 0 1 2.69.361c4.262 1.145 7.03 4.684 6.175 7.89-.655 2.451-3.3 4.1-6.59 4.1a10 10 0 0 1-1.31-.086 3.8 3.8 0 0 1 .607 2.813c-.43 2.16-2.827 3.373-2.93 3.424zm-1.061-6.449c0 .533.7 1 1.5 1a2 2 0 0 0 .7-.125l.552-.343a.77.77 0 0 0 .245-.532c0-.533-.7-1-1.5-1s-1.497.467-1.497 1m3.712.933a1.8 1.8 0 0 0 .236-.525 1.8 1.8 0 0 1-.236.525m.238-.532v-.019zm.007-.029.007-.03zm.01-.044v-.016zm.006-.032v-.015zm.007-.042v-.01zm0-.032v-.012zm0-.222v-.024c.02.008.02.016.02.024zm0-.03V11.8c0-.007.02.013.02.02zm0-.025v-.02q.019.01.019.024zm0-.023a2 2 0 0 0-.033-.26 8 8 0 0 0 1.093.073c2.559 0 4.605-1.229 5.094-3.057.649-2.432-1.582-5.153-4.975-6.064a8.6 8.6 0 0 0-2.235-.3c-2.56 0-4.606 1.23-5.094 3.057-.446 1.673.5 3.6 2.4 4.9a3 3 0 0 1 1.247-.266 2.316 2.316 0 0 1 2.52 1.917zm-4.346-1.253.014-.013zm.025-.02.007-.006zm.02-.018h.007zm.04-.033" fill="#fff"/></svg>
