<svg xmlns="http://www.w3.org/2000/svg" xmlns:xlink="http://www.w3.org/1999/xlink" width="18" height="15" viewBox="0 0 18 15"><defs><clipPath id="b"><rect width="18" height="15"/></clipPath></defs><g id="a" clip-path="url(#b)"><path d="M-1154,13.5a1.494,1.494,0,0,1,.145-.643l-2.212-1.84A3.488,3.488,0,0,1-1158.5,12a3.5,3.5,0,0,1-3.475-3.08l-3.066-.07A1.5,1.5,0,0,1-1166.5,10a1.5,1.5,0,0,1-1.5-1.5,1.5,1.5,0,0,1,1.5-1.5,1.5,1.5,0,0,1,1.493,1.35l3.008.069A3.5,3.5,0,0,1-1158.5,5a3.489,3.489,0,0,1,2.411.962l3.357-3.607A1.492,1.492,0,0,1-1153,1.5a1.5,1.5,0,0,1,1.5-1.5,1.5,1.5,0,0,1,1.5,1.5,1.5,1.5,0,0,1-1.5,1.5,1.494,1.494,0,0,1-.908-.306l-3.363,3.614A3.484,3.484,0,0,1-1155,8.5a3.485,3.485,0,0,1-.734,2.145l2.166,1.8A1.494,1.494,0,0,1-1152.5,12a1.5,1.5,0,0,1,1.5,1.5,1.5,1.5,0,0,1-1.5,1.5A1.5,1.5,0,0,1-1154,13.5Z" transform="translate(1168)"/></g></svg>