<svg xmlns="http://www.w3.org/2000/svg" xmlns:xlink="http://www.w3.org/1999/xlink" width="18" height="15" viewBox="0 0 18 15"><defs><clipPath id="b"><rect width="18" height="15"/></clipPath></defs><g id="a" clip-path="url(#b)"><path d="M-1154,13.5a1.494,1.494,0,0,1,.159-.673l-2.55-2.209a2.49,2.49,0,0,1-1.609.588,2.5,2.5,0,0,1-2.486-2.237l-4.556-.117A1.5,1.5,0,0,1-1166.5,10a1.5,1.5,0,0,1-1.5-1.5,1.5,1.5,0,0,1,1.5-1.5,1.5,1.5,0,0,1,1.493,1.354l4.518.115A2.5,2.5,0,0,1-1158,6.207a2.487,2.487,0,0,1,1.432.451l3.852-4.282A1.493,1.493,0,0,1-1153,1.5a1.5,1.5,0,0,1,1.5-1.5,1.5,1.5,0,0,1,1.5,1.5,1.5,1.5,0,0,1-1.5,1.5,1.494,1.494,0,0,1-.89-.292l-3.824,4.252a2.492,2.492,0,0,1,.714,1.747,2.487,2.487,0,0,1-.543,1.553l2.5,2.163A1.494,1.494,0,0,1-1152.5,12a1.5,1.5,0,0,1,1.5,1.5,1.5,1.5,0,0,1-1.5,1.5A1.5,1.5,0,0,1-1154,13.5Zm-5.5-4.792a1.5,1.5,0,0,0,1.5,1.5,1.5,1.5,0,0,0,1.5-1.5,1.5,1.5,0,0,0-1.5-1.5A1.5,1.5,0,0,0-1159.5,8.708Z" transform="translate(1168)"/></g></svg>