<svg xmlns="http://www.w3.org/2000/svg" xmlns:xlink="http://www.w3.org/1999/xlink" width="17" height="14" viewBox="0 0 17 14"><defs><clipPath id="b"><rect width="17" height="14"/></clipPath></defs><g id="a" clip-path="url(#b)"><path d="M6.047,15.616a7.024,7.024,0,0,1-3-8.661L1.513,6.07,5.178,4.721h0L5.844,8.57l-1.48-.854a5.542,5.542,0,0,0,2.433,6.6,5.486,5.486,0,0,0,5.742-.149l1.422.821a6.984,6.984,0,0,1-3.807,1.539q-.309.027-.617.027A6.957,6.957,0,0,1,6.047,15.616Zm8.2-2.2-.665-3.847,1.406.812A5.5,5.5,0,0,0,7.626,4.4L6.048,3.492a7,7,0,0,1,10.311,7.684l1.55.9-3.664,1.348h0Z" transform="translate(-1.211 -2.559)"/></g></svg>